# xmcd
#
# Track frame offsets: 
#        150
#        12140
#        23921
#        39154
#        51803
#        63565
#        81624
#        91247
#        109181
#        116900
#        125441
#        140263
#
# Disc length: 2053 seconds
#
# Revision: 0
# Processed by: cddbd v1.5.2PL0 Copyright (c) Steve Scherf et al.
# Submitted via: ExactAudioCopy v1.0b3
#
DISCID=9e08030c
DTITLE=Various Artist - The Best Of Country Greats - The Ladies
DYEAR=2006
DGENRE=Country
TTITLE0=Lynn Anderson - How Can I Love You
TTITLE1=Patsy Cline - Walkin' After Midnight
TTITLE2=Lacy J. Dalton - Taking It Easy
TTITLE3=Holly Dunn - You Really Had Me Going
TTITLE4=Donna Fargo - The Happiest Girl In The Whole USA
TTITLE5=Janie Fricke - Tell Me A Lie
TTITLE6=Barbara Mandrell - Release Me
TTITLE7=Juice Newton - Break It To Me Gently
TTITLE8=Dolly Parton - Puppy Love
TTITLE9=Sandy Posey - Born A Woman
TTITLE10=Jeanne Pruitt - Satin Sheets
TTITLE11=Billie Jo Spears - Mr. Walker, It's All Over'
EXTD=
EXTT0=
EXTT1=
EXTT2=
EXTT3=
EXTT4=
EXTT5=
EXTT6=
EXTT7=
EXTT8=
EXTT9=
EXTT10=
EXTT11=
PLAYORDER=
